<svg width="96" height="96" viewBox="0 0 96 96" fill="none" xmlns="http://www.w3.org/2000/svg">
<path d="M0 8C0 3.58172 3.58172 0 8 0H88C92.4183 0 96 3.58172 96 8V88C96 92.4183 92.4183 96 88 96H8C3.58172 96 0 92.4183 0 88V8Z" fill="#E7F9FB"/>
<path d="M35.334 37.3333C35.334 36.4493 35.6852 35.6014 36.3103 34.9763C36.9354 34.3512 37.7833 34 38.6673 34C39.5514 34 40.3992 34.3512 41.0243 34.9763C41.6495 35.6014 42.0007 36.4493 42.0007 37.3333C42.0007 38.2174 41.6495 39.0652 41.0243 39.6904C40.3992 40.3155 39.5514 40.6667 38.6673 40.6667C37.7833 40.6667 36.9354 40.3155 36.3103 39.6904C35.6852 39.0652 35.334 38.2174 35.334 37.3333Z" fill="#3FD2DB"/>
<path d="M40.9787 22H55.0213C57.9333 22 60.2427 22 62.1013 22.152C64.0053 22.3067 65.6133 22.632 67.0853 23.3787C69.4684 24.5943 71.4054 26.5331 72.6187 28.9173C73.368 30.384 73.6933 31.9947 73.848 33.8987C74 35.7573 74 38.0667 74 40.9787V55.0213C74 57.9333 74 60.2427 73.848 62.1013C73.6933 64.0053 73.368 65.6133 72.6213 67.0853C71.4064 69.468 69.4685 71.4049 67.0853 72.6187C65.6133 73.368 64.0053 73.6933 62.1013 73.848C60.2427 74 57.9333 74 55.0213 74H40.9787C38.0667 74 35.7573 74 33.8987 73.848C31.9947 73.6933 30.3867 73.368 28.9173 72.6213C26.5337 71.4069 24.5958 69.469 23.3813 67.0853C22.632 65.6133 22.3067 64.0053 22.1547 62.1013C22 60.2427 22 57.9333 22 55.0213V40.9787C22 38.0667 22 35.7573 22.152 33.8987C22.3067 31.9947 22.632 30.3867 23.3787 28.9173C24.5938 26.5333 26.5327 24.5953 28.9173 23.3813C30.384 22.632 31.9947 22.3067 33.8987 22.152C35.7573 22 38.0667 22 40.9787 22ZM26 52.6747V54.9333C26 57.9547 26 60.0987 26.1387 61.776C26.272 63.4293 26.5307 64.456 26.944 65.2693C27.7748 66.8996 29.1003 68.2252 30.7307 69.056C31.544 69.4693 32.5707 69.7253 34.224 69.8613C35.2613 69.9467 36.4773 69.9787 37.968 69.992C37.8453 66.28 38.4133 62.7653 39.5493 59.5387C36.5627 55.256 31.6 52.496 26 52.6747ZM70.0027 44.4507C54.368 43.136 41.3973 54.7813 41.9733 70H54.9333C57.9547 70 60.0987 70 61.776 69.8613C63.4293 69.728 64.456 69.4693 65.2693 69.056C66.8996 68.2252 68.2252 66.8996 69.056 65.2693C69.4693 64.456 69.7253 63.4293 69.8613 61.776C70 60.096 70 57.952 70 54.9333L70.0027 44.4507ZM31.3333 37.3333C31.3333 39.2783 32.1059 41.1435 33.4812 42.5188C34.8565 43.894 36.7217 44.6667 38.6667 44.6667C40.6116 44.6667 42.4768 43.894 43.8521 42.5188C45.2274 41.1435 46 39.2783 46 37.3333C46 35.3884 45.2274 33.5231 43.8521 32.1479C42.4768 30.7726 40.6116 30 38.6667 30C36.7217 30 34.8565 30.7726 33.4812 32.1479C32.1059 33.5231 31.3333 35.3884 31.3333 37.3333ZM35.3333 37.3333C35.3333 36.4493 35.6845 35.6014 36.3096 34.9763C36.9348 34.3512 37.7826 34 38.6667 34C39.5507 34 40.3986 34.3512 41.0237 34.9763C41.6488 35.6014 42 36.4493 42 37.3333C42 38.2174 41.6488 39.0652 41.0237 39.6904C40.3986 40.3155 39.5507 40.6667 38.6667 40.6667C37.7826 40.6667 36.9348 40.3155 36.3096 39.6904C35.6845 39.0652 35.3333 38.2174 35.3333 37.3333Z" fill="#3FD2DB"/>
</svg>
